<svg width="1024" height="1024" viewBox="0 0 1024 1024" fill="none" xmlns="http://www.w3.org/2000/svg">
<rect x="0.5" y="0.5" width="1023" height="1023" stroke="white"/>
<path d="M62 162V57H170.1" stroke="white" stroke-miterlimit="10"/>
<path d="M860 57H965V165.2" stroke="white" stroke-miterlimit="10"/>
<path d="M965.1 859V964.1H857" stroke="white" stroke-miterlimit="10"/>
<path d="M167 964.1H62V856" stroke="white" stroke-miterlimit="10"/>
<g opacity="0.7" filter="url(#filter0_d_2230_13)">
<path d="M525.1 402C451 402 391 462.1 391 536.1C391 610.2 451.1 670.2 525.1 670.2C599.2 670.2 659.2 610.1 659.2 536.1C659.3 462.1 599.2 402 525.1 402ZM525.1 602.7C488.4 602.7 458.6 572.9 458.6 536.2C458.6 499.5 488.4 469.7 525.1 469.7C561.8 469.7 591.6 499.5 591.6 536.2C591.7 572.9 561.9 602.7 525.1 602.7Z" fill="white" fill-opacity="0.2" stroke="white" stroke-width="2" stroke-miterlimit="10"/>
<path d="M525.1 403C598.648 403 658.299 462.653 658.2 536.099V536.1C658.2 609.548 598.647 669.2 525.1 669.2C451.652 669.2 392 609.647 392 536.1C392 462.652 451.553 403 525.1 403ZM525.1 468.7C487.847 468.7 457.6 498.948 457.6 536.2C457.6 573.452 487.848 603.7 525.1 603.7C562.159 603.7 592.228 573.924 592.597 537.069L592.6 536.197C592.598 498.946 562.351 468.7 525.1 468.7Z" fill="white" fill-opacity="0.2" stroke="white" stroke-width="2"/>
</g>
<defs>
<filter id="filter0_d_2230_13" x="380" y="395" width="290.2" height="290.2" filterUnits="userSpaceOnUse" color-interpolation-filters="sRGB">
<feFlood flood-opacity="0" result="BackgroundImageFix"/>
<feColorMatrix in="SourceAlpha" type="matrix" values="0 0 0 0 0 0 0 0 0 0 0 0 0 0 0 0 0 0 127 0" result="hardAlpha"/>
<feOffset dy="4"/>
<feGaussianBlur stdDeviation="5"/>
<feComposite in2="hardAlpha" operator="out"/>
<feColorMatrix type="matrix" values="0 0 0 0 0 0 0 0 0 0 0 0 0 0 0 0 0 0 0.25 0"/>
<feBlend mode="normal" in2="BackgroundImageFix" result="effect1_dropShadow_2230_13"/>
<feBlend mode="normal" in="SourceGraphic" in2="effect1_dropShadow_2230_13" result="shape"/>
</filter>
</defs>
</svg>
