<svg width="128" height="64" viewBox="0 0 128 64" fill="none" xmlns="http://www.w3.org/2000/svg">
<path d="M4 45V9H9.11354V26.7653L18.8235 9H24.526L16.712 23.3232L25 45H19.5848L13.4658 29.3256L9.11354 37.6037V45H4Z" fill="white" fill-opacity="0.8"/>
<path d="M34.946 45C32.6395 45 30.7339 44.3232 29.2361 42.9662C27.7454 41.6127 27 39.5369 27 36.7387V26.2753C27 23.4421 27.7454 21.3592 29.2361 20.0197C30.7339 18.6732 32.6395 18 34.946 18C35.6773 18 36.5 18.0912 37.4212 18.2665C38.3388 18.4348 39.5307 19.059 40.9933 20.1319L41.6262 18.2945H46V44.7195H41.6262L40.9933 42.8821C39.5307 43.9586 38.3388 44.5792 37.4212 44.7475C36.5 44.9158 35.6773 45 34.946 45ZM36.3805 40.5818C37.7306 40.5818 38.8346 40.1891 39.6995 39.4036C40.5609 38.6182 40.9933 37.5206 40.9933 36.1075V26.9065C40.9933 25.4583 40.5609 24.3503 39.6995 23.5823C38.8346 22.8179 37.7306 22.4322 36.3805 22.4322C35.2624 22.4322 34.2568 22.8074 33.3568 23.5543C32.4567 24.2942 32.0067 25.4127 32.0067 26.9065V36.1075C32.0067 37.5943 32.4567 38.7129 33.3568 39.4597C34.2568 40.2101 35.2624 40.5818 36.3805 40.5818Z" fill="white" fill-opacity="0.8"/>
<path d="M50 45V18.2976H54.6006L55.2663 20.1543C56.8047 19.0701 58.0547 18.4394 59.0237 18.2693C60 18.0921 60.8654 18 61.6272 18C64.0533 18 66.054 18.6803 67.6331 20.0409C69.2086 21.3945 70 23.4992 70 26.3622V45H64.7189V27C64.7189 25.4906 64.2456 24.3602 63.2988 23.6126C62.3521 22.8579 61.2907 22.4787 60.1183 22.4787C58.7056 22.4787 57.5444 22.8685 56.6272 23.6409C55.7175 24.4169 55.2663 25.5366 55.2663 27V45H50Z" fill="white" fill-opacity="0.8"/>
<path d="M82.4928 45C80.7747 45 79.189 44.6494 77.7393 43.9481C76.2967 43.2397 75.1477 42.2509 74.2886 40.9886C73.4295 39.7262 73 38.25 73 36.5564V27.0187C73 25.3005 73.4081 23.7612 74.2313 22.4042C75.0511 21.0401 76.1822 19.9636 77.6247 19.1782C79.0744 18.3927 80.6959 18 82.4928 18C84.3327 18 85.965 18.3927 87.3896 19.1782C88.8214 19.9636 89.9454 21.0401 90.7687 22.4042C91.5884 23.7612 92 25.3005 92 27.0187V36.5564C92 38.25 91.5633 39.7262 90.6971 40.9886C89.838 42.2509 88.6925 43.2397 87.2607 43.9481C85.8361 44.6494 84.2468 45 82.4928 45ZM82.4928 40.5818C83.7815 40.5818 84.8338 40.154 85.6571 39.2914C86.4768 38.4323 86.8885 37.3523 86.8885 36.0514V26.8504C86.8885 25.5881 86.4768 24.5361 85.6571 23.6945C84.8338 22.853 83.7815 22.4322 82.4928 22.4322C81.2042 22.4322 80.1483 22.853 79.3286 23.6945C78.5053 24.5361 78.0972 25.5881 78.0972 26.8504V36.0514C78.0972 37.3523 78.5053 38.4323 79.3286 39.2914C80.1483 40.154 81.2042 40.5818 82.4928 40.5818Z" fill="white" fill-opacity="0.8"/>
<path d="M95.9718 15.5137V9H101V15.5137H95.9718ZM91 54V49.5156H92.1582C93.4294 49.5156 94.3227 49.2744 94.8418 48.7919C95.3573 48.3094 95.6751 47.6708 95.7881 46.8761C95.9082 46.0814 95.9718 45.237 95.9718 44.35V17.7843H101V44.6906C101 47.1315 100.679 49.026 100.04 50.3813C99.4075 51.7436 98.5035 52.6838 97.3277 53.2053C96.1483 53.7339 94.7323 54 93.0763 54H91Z" fill="white" fill-opacity="0.8"/>
<path d="M114.493 45C112.775 45 111.189 44.6494 109.739 43.9481C108.297 43.2397 107.148 42.2509 106.289 40.9886C105.43 39.7262 105 38.25 105 36.5564V27.0187C105 25.3005 105.408 23.7612 106.231 22.4042C107.051 21.0401 108.182 19.9636 109.625 19.1782C111.074 18.3927 112.696 18 114.493 18C116.333 18 117.965 18.3927 119.39 19.1782C120.821 19.9636 121.945 21.0401 122.769 22.4042C123.588 23.7612 124 25.3005 124 27.0187V36.5564C124 38.25 123.563 39.7262 122.697 40.9886C121.838 42.2509 120.693 43.2397 119.261 43.9481C117.836 44.6494 116.247 45 114.493 45ZM114.493 40.5818C115.781 40.5818 116.834 40.154 117.657 39.2914C118.477 38.4323 118.888 37.3523 118.888 36.0514V26.8504C118.888 25.5881 118.477 24.5361 117.657 23.6945C116.834 22.853 115.781 22.4322 114.493 22.4322C113.204 22.4322 112.148 22.853 111.329 23.6945C110.505 24.5361 110.097 25.5881 110.097 26.8504V36.0514C110.097 37.3523 110.505 38.4323 111.329 39.2914C112.148 40.154 113.204 40.5818 114.493 40.5818Z" fill="white" fill-opacity="0.8"/>
<rect x="40" y="47" width="48" height="10" fill="#D9D9D9"/>
<path d="M46.3892 51C46.3703 50.7633 46.2815 50.5786 46.1229 50.446C45.9666 50.3134 45.7287 50.2472 45.4091 50.2472C45.2055 50.2472 45.0386 50.272 44.9084 50.3217C44.7805 50.3691 44.6858 50.4342 44.6243 50.517C44.5627 50.5999 44.5308 50.6946 44.5284 50.8011C44.5237 50.8887 44.5391 50.968 44.5746 51.0391C44.6125 51.1077 44.6716 51.1705 44.7521 51.2273C44.8326 51.2817 44.9356 51.3314 45.0611 51.3764C45.1866 51.4214 45.3357 51.4616 45.5085 51.4972L46.1051 51.625C46.5076 51.7102 46.852 51.8227 47.1385 51.9624C47.425 52.102 47.6593 52.2666 47.8416 52.456C48.0239 52.643 48.1577 52.8537 48.2429 53.0881C48.3305 53.3224 48.3755 53.5781 48.3778 53.8551C48.3755 54.3333 48.2559 54.7382 48.0192 55.0696C47.7824 55.401 47.4439 55.6532 47.0036 55.826C46.5656 55.9988 46.0388 56.0852 45.4233 56.0852C44.7912 56.0852 44.2396 55.9917 43.7685 55.8047C43.2997 55.6177 42.9351 55.33 42.6747 54.9418C42.4167 54.5511 42.2865 54.0516 42.2841 53.4432H44.1591C44.1709 53.6657 44.2266 53.8527 44.326 54.0043C44.4254 54.1558 44.5651 54.2706 44.745 54.3487C44.9273 54.4268 45.1439 54.4659 45.3949 54.4659C45.6056 54.4659 45.782 54.4399 45.924 54.3878C46.0661 54.3357 46.1738 54.2635 46.2472 54.1712C46.3205 54.0788 46.3584 53.9735 46.3608 53.8551C46.3584 53.7438 46.3217 53.6468 46.2507 53.5639C46.1821 53.4787 46.0684 53.4029 45.9098 53.3366C45.7512 53.268 45.5369 53.2041 45.267 53.1449L44.5426 52.9886C43.8987 52.849 43.3909 52.6158 43.0192 52.2891C42.6499 51.96 42.4664 51.5114 42.4688 50.9432C42.4664 50.4815 42.5895 50.0779 42.8381 49.7322C43.089 49.3842 43.4358 49.1132 43.8786 48.919C44.3236 48.7249 44.8338 48.6278 45.4091 48.6278C45.9962 48.6278 46.504 48.7261 46.9325 48.9226C47.361 49.1191 47.6913 49.3961 47.9233 49.7536C48.1577 50.1087 48.276 50.5241 48.2784 51H46.3892ZM49.93 50.3182V48.7273H56.2511V50.3182H54.0636V56H52.1175V50.3182H49.93ZM62.2981 48.7273H64.2725V53.3864C64.2725 53.9403 64.14 54.4197 63.8748 54.8246C63.612 55.227 63.2451 55.5384 62.774 55.7585C62.3029 55.9763 61.756 56.0852 61.1333 56.0852C60.506 56.0852 59.9567 55.9763 59.4856 55.7585C59.0145 55.5384 58.6475 55.227 58.3848 54.8246C58.1243 54.4197 57.9941 53.9403 57.9941 53.3864V48.7273H59.9686V53.2159C59.9686 53.4408 60.0183 53.642 60.1177 53.8196C60.2172 53.9948 60.3545 54.1321 60.5297 54.2315C60.7072 54.331 60.9084 54.3807 61.1333 54.3807C61.3606 54.3807 61.5618 54.331 61.737 54.2315C61.9122 54.1321 62.0495 53.9948 62.149 53.8196C62.2484 53.642 62.2981 53.4408 62.2981 53.2159V48.7273ZM69.0092 56H66.2109V48.7273H68.9808C69.7289 48.7273 70.3752 48.8729 70.9197 49.1641C71.4666 49.4529 71.888 49.8696 72.1839 50.4141C72.4822 50.9562 72.6314 51.6061 72.6314 52.3636C72.6314 53.1212 72.4834 53.7723 72.1875 54.3168C71.8916 54.8589 71.4725 55.2756 70.9304 55.5668C70.3883 55.8556 69.7479 56 69.0092 56ZM68.1854 54.3239H68.9382C69.2981 54.3239 69.6046 54.2659 69.858 54.1499C70.1136 54.0339 70.3078 53.8338 70.4403 53.5497C70.5753 53.2656 70.6428 52.8703 70.6428 52.3636C70.6428 51.857 70.5741 51.4616 70.4368 51.1776C70.3018 50.8935 70.103 50.6934 69.8402 50.5774C69.5798 50.4614 69.2602 50.4034 68.8814 50.4034H68.1854V54.3239ZM76.5194 48.7273V56H74.5449V48.7273H76.5194ZM85.5005 52.3636C85.5005 53.1733 85.3431 53.8563 85.0282 54.4126C84.7134 54.9666 84.2884 55.3868 83.7534 55.6733C83.2183 55.9574 82.6217 56.0994 81.9636 56.0994C81.3007 56.0994 80.7018 55.9562 80.1667 55.6697C79.6341 55.3809 79.2103 54.9595 78.8954 54.4055C78.5829 53.8492 78.4267 53.1686 78.4267 52.3636C78.4267 51.554 78.5829 50.8722 78.8954 50.3182C79.2103 49.7618 79.6341 49.3416 80.1667 49.0575C80.7018 48.7711 81.3007 48.6278 81.9636 48.6278C82.6217 48.6278 83.2183 48.7711 83.7534 49.0575C84.2884 49.3416 84.7134 49.7618 85.0282 50.3182C85.3431 50.8722 85.5005 51.554 85.5005 52.3636ZM83.4693 52.3636C83.4693 51.928 83.4113 51.5611 83.2953 51.2628C83.1816 50.9621 83.0124 50.7348 82.7875 50.581C82.5649 50.4247 82.2903 50.3466 81.9636 50.3466C81.6369 50.3466 81.3611 50.4247 81.1362 50.581C80.9136 50.7348 80.7444 50.9621 80.6284 51.2628C80.5147 51.5611 80.4579 51.928 80.4579 52.3636C80.4579 52.7992 80.5147 53.1674 80.6284 53.468C80.7444 53.7663 80.9136 53.9936 81.1362 54.1499C81.3611 54.3037 81.6369 54.3807 81.9636 54.3807C82.2903 54.3807 82.5649 54.3037 82.7875 54.1499C83.0124 53.9936 83.1816 53.7663 83.2953 53.468C83.4113 53.1674 83.4693 52.7992 83.4693 52.3636Z" fill="black"/>
</svg>
