<svg width="128" height="128" viewBox="0 0 128 128" fill="none" xmlns="http://www.w3.org/2000/svg">
<rect width="128" height="128" fill="#FF383C"/>
<g opacity="0.8">
<rect x="112" y="112" width="16" height="16" fill="white"/>
<rect x="112" y="112" width="16" height="16" stroke="white"/>
</g>
<g opacity="0.7">
<rect x="96" y="112" width="16" height="16" fill="white"/>
<rect x="96" y="112" width="16" height="16" stroke="white"/>
</g>
<g opacity="0.6">
<rect x="80" y="112" width="16" height="16" fill="white"/>
<rect x="80" y="112" width="16" height="16" stroke="white"/>
</g>
<g opacity="0.5">
<rect x="64" y="112" width="16" height="16" fill="white"/>
<rect x="64" y="112" width="16" height="16" stroke="white"/>
</g>
<g opacity="0.4">
<rect x="48" y="112" width="16" height="16" fill="white"/>
<rect x="48" y="112" width="16" height="16" stroke="white"/>
</g>
<g opacity="0.3">
<rect x="32" y="112" width="16" height="16" fill="white"/>
<rect x="32" y="112" width="16" height="16" stroke="white"/>
</g>
<g opacity="0.2">
<rect x="16" y="112" width="16" height="16" fill="white"/>
<rect x="16" y="112" width="16" height="16" stroke="white"/>
</g>
<g opacity="0.1">
<rect y="112" width="16" height="16" fill="white"/>
<rect y="112" width="16" height="16" stroke="white"/>
</g>
</svg>
